<?xml version="1.0" encoding="UTF-8" standalone="no"?>
<!DOCTYPE svg PUBLIC "-//W3C//DTD SVG 1.1//EN" "http://www.w3.org/Graphics/SVG/1.1/DTD/svg11.dtd">
<svg xmlns="http://www.w3.org/2000/svg" version="1.1" viewBox="0.00 0.00 512.00 512.00">
<path fill="#8b5cf6" d="
  M 253.39 0.00
  L 258.59 0.00
  Q 266.93 2.96 266.92 10.99
  Q 266.88 31.14 266.91 51.75
  Q 266.92 58.45 262.77 61.74
  C 257.43 65.98 249.83 64.38 246.47 58.39
  Q 245.12 55.99 245.11 50.42
  Q 245.09 31.19 245.09 12.24
  Q 245.10 3.05 253.39 0.00
  Z"
/>
<rect fill="#8b5cf6" x="-32.23" y="-10.84" transform="translate(97.61,97.62) rotate(44.9)" width="64.46" height="21.68" rx="10.57"/>
<rect fill="#8b5cf6" x="-32.13" y="-10.83" transform="translate(414.45,97.54) rotate(-44.9)" width="64.26" height="21.66" rx="10.56"/>
<path fill="#8b5cf6" d="
  M 0.00 258.48
  L 0.00 253.40
  Q 2.96 245.06 11.00 245.08
  Q 31.38 245.12 51.75 245.09
  Q 60.76 245.08 63.50 252.43
  C 64.38 254.79 64.30 258.45 63.03 260.69
  Q 59.54 266.92 53.00 266.91
  Q 32.87 266.89 12.25 266.91
  Q 2.94 266.92 0.00 258.48
  Z"
/>
<path fill="#8b5cf6" d="
  M 512.00 253.52
  L 512.00 258.57
  C 509.82 264.76 505.33 267.03 499.01 266.98
  Q 478.28 266.80 459.85 266.95
  C 452.72 267.00 447.01 261.79 448.04 254.44
  Q 448.83 248.79 454.15 246.20
  Q 456.63 245.00 463.03 245.04
  Q 481.14 245.14 500.75 245.07
  Q 509.12 245.05 512.00 253.52
  Z"
/>
<rect fill="#8b5cf6" x="-10.81" y="-32.17" transform="translate(97.71,414.26) rotate(44.9)" width="21.62" height="64.34" rx="10.55"/>
<rect fill="#8b5cf6" x="-10.84" y="-31.86" transform="translate(414.38,414.39) rotate(-44.9)" width="21.68" height="63.72" rx="10.58"/>
<path fill="#8b5cf6" d="
  M 258.48 512.00
  L 253.41 512.00
  C 247.72 509.97 245.06 505.78 245.07 499.93
  Q 245.10 476.33 245.11 459.64
  Q 245.11 451.17 252.77 448.38
  C 255.38 447.44 258.99 447.89 261.45 449.35
  Q 266.96 452.62 266.91 459.81
  Q 266.79 477.58 267.01 494.41
  Q 267.10 501.69 266.43 504.12
  Q 264.89 509.75 258.48 512.00
  Z"
/>
</svg>
