<?xml version="1.0" standalone="no"?>
<!DOCTYPE svg PUBLIC "-//W3C//DTD SVG 20010904//EN"
 "http://www.w3.org/TR/2001/REC-SVG-20010904/DTD/svg10.dtd">
<svg version="1.0" xmlns="http://www.w3.org/2000/svg"
 width="512.000000pt" height="512.000000pt" viewBox="0 0 512.000000 512.000000"
 preserveAspectRatio="xMidYMid meet">

<g transform="translate(0.000000,512.000000) scale(0.100000,-0.100000)"
fill="#8b5cf6" stroke="none">
<path d="M2475 4787 c-150 -39 -274 -166 -300 -307 -6 -35 -7 -36 -88 -54
-201 -45 -469 -158 -644 -271 -515 -335 -845 -847 -939 -1456 -24 -150 -24
-452 -1 -594 26 -164 48 -245 70 -266 29 -27 78 -25 107 6 26 27 25 33 -9 195
-84 391 -25 824 163 1205 211 425 551 750 975 931 97 42 260 93 341 107 35 7
35 6 59 -48 65 -152 258 -250 423 -216 127 26 230 105 283 216 38 79 46 205
20 286 -64 195 -271 314 -460 266z"/>
<path d="M3141 4363 c-11 -10 -24 -32 -27 -49 -9 -46 25 -76 121 -109 189 -64
416 -197 575 -337 349 -306 569 -703 651 -1174 30 -174 30 -435 0 -604 -21
-119 -54 -244 -91 -342 l-21 -56 -37 10 c-20 6 -71 8 -112 6 -275 -16 -447
-314 -325 -563 35 -72 108 -142 185 -179 60 -29 73 -31 170 -31 96 0 110 3
165 29 124 61 210 187 222 324 8 94 -21 187 -82 270 l-44 61 44 133 c80 242
111 458 102 708 -13 322 -85 599 -233 890 -236 466 -623 817 -1096 994 -109
41 -137 44 -167 19z"/>
<path d="M2150 3811 c-69 -21 -132 -75 -165 -140 -9 -19 -19 -62 -22 -95 -10
-127 -38 -149 -148 -115 -163 50 -321 -14 -392 -159 -23 -48 -28 -70 -28 -137
0 -68 5 -89 28 -138 36 -72 82 -109 145 -114 80 -7 136 43 153 135 12 59 38
86 84 86 55 0 80 -32 79 -99 -3 -111 -97 -234 -206 -271 -78 -25 -180 -16
-251 24 l-55 31 -47 -31 c-57 -38 -107 -104 -136 -178 -31 -80 -24 -213 15
-288 41 -80 98 -137 181 -178 106 -53 111 -70 54 -181 -41 -79 -44 -91 -44
-162 0 -61 5 -87 26 -132 68 -144 232 -219 373 -170 78 28 111 27 141 -4 20
-20 25 -34 25 -78 0 -156 108 -267 259 -267 108 1 190 53 235 150 19 41 21 67
24 269 3 190 1 231 -13 268 -40 105 -181 123 -248 32 -10 -15 -23 -48 -28 -75
-12 -61 -37 -88 -84 -88 -81 0 -105 92 -53 205 52 114 155 181 277 181 39 0
83 -7 105 -16 21 -9 40 -16 43 -16 2 0 2 352 1 783 l-3 782 -23 47 c-54 110
-191 172 -302 139z"/>
<path d="M2795 3797 c-59 -28 -117 -89 -136 -143 -10 -29 -14 -101 -14 -279 0
-235 0 -241 23 -273 44 -62 124 -80 191 -44 37 20 71 73 71 110 0 30 25 78 45
86 32 12 75 6 95 -14 28 -28 34 -61 21 -122 -40 -182 -233 -293 -401 -229
l-51 19 3 -786 c3 -746 4 -789 22 -822 49 -93 113 -141 208 -155 97 -15 213
47 259 138 13 25 24 71 28 120 10 120 41 137 171 96 146 -46 301 26 369 170
67 144 2 349 -123 382 -76 21 -159 -32 -172 -110 -10 -59 -14 -71 -37 -91 -33
-31 -80 -26 -112 12 -24 29 -26 37 -20 82 20 152 136 263 286 274 74 5 124 -7
183 -45 39 -26 40 -26 74 -7 18 10 56 42 82 71 76 83 111 199 91 305 -23 127
-91 217 -207 275 -115 56 -126 83 -69 172 111 174 38 400 -151 471 -69 25
-141 25 -223 0 -35 -11 -72 -18 -82 -15 -36 12 -59 55 -59 110 0 149 -97 254
-244 262 -60 3 -79 0 -121 -20z"/>
<path d="M785 1697 c-166 -56 -272 -188 -283 -353 -17 -273 243 -477 507 -398
l53 15 77 -73 c296 -285 695 -478 1126 -544 149 -23 442 -23 590 0 315 49 604
160 860 332 128 85 162 115 171 149 12 47 -49 104 -93 88 -10 -3 -47 -27 -83
-53 -400 -286 -863 -416 -1325 -371 -243 24 -448 82 -670 191 -193 94 -374
219 -488 337 l-38 40 35 57 c69 114 75 262 17 380 -39 80 -121 157 -201 187
-68 27 -198 35 -255 16z"/>
</g>
</svg>
